<svg width="254" height="75" viewBox="0 0 254 75" fill="none" xmlns="http://www.w3.org/2000/svg">
<g clip-path="url(#clip0_144_1556)">
<path d="M129.467 63.4838C125.674 63.4838 122.346 62.6322 119.481 60.929C116.656 59.2258 114.469 56.8064 112.921 53.6709C111.411 50.4967 110.657 46.7999 110.657 42.5806C110.657 38.3612 111.411 34.6838 112.921 31.5483C114.469 28.3741 116.656 25.9354 119.481 24.2322C122.346 22.529 125.694 21.6774 129.525 21.6774C132.777 21.6774 135.602 22.2967 138.002 23.5354C140.44 24.7741 142.24 26.5354 143.401 28.8193L138.64 32.9999C136.589 29.9032 133.589 28.3548 129.641 28.3548C126.197 28.3548 123.565 29.5741 121.746 32.0129C119.927 34.4129 119.017 37.9354 119.017 42.5806C119.017 47.187 119.907 50.7096 121.688 53.1483C123.468 55.587 126.042 56.8064 129.409 56.8064C133.589 56.8064 136.666 55.258 138.64 52.1612L143.401 56.3419C142.24 58.6258 140.44 60.387 138.002 61.6258C135.602 62.8645 132.757 63.4838 129.467 63.4838ZM161.367 63.4838C159.47 63.4838 157.767 63.0967 156.258 62.3225C154.748 61.5096 153.568 60.4064 152.716 59.0128C151.865 57.5806 151.439 55.9935 151.439 54.2516C151.439 51.2709 152.619 48.987 154.98 47.3999C157.341 45.8128 160.709 45.0193 165.082 45.0193H169.611V43.7999C169.611 42.2516 169.146 41.0709 168.218 40.258C167.327 39.4064 166.05 38.9806 164.386 38.9806C162.644 38.9806 160.98 39.2903 159.393 39.9096C157.806 40.529 156.509 41.3806 155.503 42.4645L152.252 38.1677C153.839 36.658 155.716 35.4774 157.883 34.6258C160.051 33.7354 162.296 33.2903 164.618 33.2903C168.488 33.2903 171.527 34.1999 173.733 36.0193C175.939 37.8387 177.042 40.3548 177.042 43.5677V56.8064C177.042 57.6967 177.1 58.7419 177.216 59.9419C177.371 61.1419 177.545 62.129 177.739 62.9032H171.178C170.946 62.3999 170.772 61.9161 170.656 61.4516C170.54 60.9483 170.443 60.2709 170.366 59.4193H170.249C168.043 62.129 165.082 63.4838 161.367 63.4838ZM163.167 57.9096C165.024 57.9096 166.553 57.4451 167.753 56.5161C168.992 55.5483 169.611 54.329 169.611 52.858V49.9548H164.85C162.876 49.9548 161.347 50.3225 160.264 51.058C159.219 51.7935 158.696 52.858 158.696 54.2516C158.696 55.4128 159.083 56.3225 159.857 56.9806C160.67 57.5999 161.773 57.9096 163.167 57.9096ZM196.934 63.4838C195.038 63.4838 193.335 63.0967 191.825 62.3225C190.316 61.5096 189.135 60.4064 188.284 59.0128C187.432 57.5806 187.006 55.9935 187.006 54.2516C187.006 51.2709 188.187 48.987 190.548 47.3999C192.909 45.8128 196.276 45.0193 200.65 45.0193H205.178V43.7999C205.178 42.2516 204.714 41.0709 203.785 40.258C202.895 39.4064 201.618 38.9806 199.953 38.9806C198.212 38.9806 196.547 39.2903 194.96 39.9096C193.373 40.529 192.077 41.3806 191.07 42.4645L187.819 38.1677C189.406 36.658 191.283 35.4774 193.451 34.6258C195.618 33.7354 197.863 33.2903 200.185 33.2903C204.056 33.2903 207.094 34.1999 209.3 36.0193C211.507 37.8387 212.61 40.3548 212.61 43.5677V56.8064C212.61 57.6967 212.668 58.7419 212.784 59.9419C212.939 61.1419 213.113 62.129 213.306 62.9032H206.746C206.514 62.3999 206.34 61.9161 206.223 61.4516C206.107 60.9483 206.011 60.2709 205.933 59.4193H205.817C203.611 62.129 200.65 63.4838 196.934 63.4838ZM198.734 57.9096C200.592 57.9096 202.121 57.4451 203.321 56.5161C204.559 55.5483 205.178 54.329 205.178 52.858V49.9548H200.418C198.444 49.9548 196.915 50.3225 195.831 51.058C194.786 51.7935 194.264 52.858 194.264 54.2516C194.264 55.4128 194.651 56.3225 195.425 56.9806C196.238 57.5999 197.341 57.9096 198.734 57.9096ZM236.74 63.4838C233.682 63.4838 230.915 62.8645 228.438 61.6258C226 60.387 224.006 58.6064 222.458 56.2838L227.277 51.6387C228.554 53.1483 230.102 54.387 231.921 55.3548C233.741 56.3225 235.444 56.8064 237.03 56.8064C238.811 56.8064 240.243 56.3999 241.327 55.587C242.41 54.7741 242.952 53.7096 242.952 52.3935C242.952 51.4258 242.778 50.6322 242.43 50.0129C242.081 49.3935 241.423 48.7741 240.456 48.1548C239.488 47.4967 237.901 46.6258 235.695 45.5419C232.792 44.1096 230.509 42.7741 228.844 41.5354C227.18 40.2967 225.942 38.9612 225.129 37.529C224.355 36.058 223.968 34.3548 223.968 32.4193C223.968 30.2903 224.529 28.4129 225.651 26.787C226.774 25.1612 228.361 23.9032 230.412 23.0129C232.463 22.1225 234.824 21.6774 237.495 21.6774C240.436 21.6774 243.029 22.2387 245.274 23.3612C247.558 24.4838 249.222 26.0322 250.267 28.0064L244.984 31.9548C243.049 29.5548 240.669 28.3548 237.843 28.3548C236.063 28.3548 234.689 28.7032 233.721 29.3999C232.754 30.0967 232.27 31.0838 232.27 32.3612C232.27 33.1354 232.502 33.8322 232.966 34.4516C233.47 35.0709 234.36 35.7483 235.637 36.4838C236.914 37.2193 238.83 38.187 241.385 39.387C243.862 40.5483 245.797 41.7096 247.19 42.8709C248.622 44.0322 249.648 45.329 250.267 46.7612C250.887 48.1935 251.196 49.8967 251.196 51.8709C251.196 54.1935 250.596 56.2451 249.396 58.0258C248.235 59.7677 246.552 61.1225 244.345 62.0903C242.178 63.0193 239.643 63.4838 236.74 63.4838Z" fill="#30504F"/>
<path d="M28.0543 24.1543C43.2174 17.3456 58.6152 15.3891 70.4326 17.8152C69.1217 17.2087 67.7717 16.1913 66.9695 14.7239C64.7978 10.7913 60.513 8.44346 55.6413 8.99129C53.6261 9.20651 51.65 8.71738 50.3391 7.81738C48.5 6.5652 46.4261 5.78259 43.9217 5.78259C41.4174 5.78259 39.3435 6.5652 37.5043 7.81738C36.1935 8.71738 34.1978 9.20651 32.2021 8.99129C27.3108 8.44346 23.0456 10.7913 20.8739 14.7239C19.8956 16.4848 18.1935 17.6 16.6282 18.1282C12.7348 19.4587 9.52606 23 9.09563 27.6174C8.89998 29.7891 7.60867 31.5109 6.64998 32.4696C4.0478 35.0717 2.95215 38.1435 2.95215 41.2543V41.4109C9.34997 34.7587 17.9391 28.6935 28.0935 24.1348L28.0543 24.1543Z" fill="url(#paint0_linear_144_1556)"/>
<path d="M41.4566 33.076C54.4087 27.2651 67.537 24.976 78.4544 25.9543C77.5153 22.1586 74.6783 19.3412 71.2153 18.1282C70.9609 18.0499 70.7066 17.9325 70.4326 17.8151C58.6153 15.3891 43.2174 17.3456 28.0544 24.1543C17.9 28.713 9.31091 34.7782 2.91309 41.4304C2.99135 47.5738 7.56961 52.6217 13.5174 53.4434C20.0913 45.5978 29.737 38.3195 41.437 33.076H41.4566Z" fill="url(#paint1_linear_144_1556)"/>
<path d="M81.1741 32.489C80.2154 31.5304 78.9436 29.8086 78.7284 27.6369C78.6697 27.0695 78.5719 26.5021 78.4545 25.9738C67.5371 24.9956 54.4088 27.2847 41.4567 33.0956C29.7371 38.339 20.0915 45.6173 13.5371 53.463C14.0849 53.5412 14.6523 53.5804 15.2197 53.5804H32.848C34.5306 53.5804 35.8806 54.9695 35.8806 56.6521V57.3564C35.8806 60.1738 33.1023 60.5456 33.1023 60.5456L18.761 63.0108C18.2523 63.0891 17.8219 63.4412 17.8219 63.9499V65.7108H70.0219V63.9499C70.0219 63.4412 69.5915 63.0891 69.0828 63.0108L54.7415 60.5456C54.7415 60.5456 51.9632 60.1738 51.9632 57.3564V56.6521C51.9632 54.9695 53.3132 53.5804 54.9958 53.5804H72.6436C79.4328 53.5804 84.9306 48.0825 84.9306 41.2934C84.9306 38.163 83.8349 35.1108 81.2328 32.5086L81.1741 32.489Z" fill="#00984E"/>
</g>
<defs>
<linearGradient id="paint0_linear_144_1556" x1="54.2521" y1="3.3565" x2="15.2978" y2="51.4478" gradientUnits="userSpaceOnUse">
<stop stop-color="#71BE44"/>
<stop offset="0.37" stop-color="#42AE48"/>
<stop offset="0.79" stop-color="#129E4C"/>
<stop offset="1" stop-color="#00984E"/>
</linearGradient>
<linearGradient id="paint1_linear_144_1556" x1="66.4413" y1="1.86949" x2="20.0131" y2="59.2347" gradientUnits="userSpaceOnUse">
<stop stop-color="#4FB748"/>
<stop offset="0.28" stop-color="#2CA94A"/>
<stop offset="0.55" stop-color="#149F4C"/>
<stop offset="0.8" stop-color="#059A4D"/>
<stop offset="1" stop-color="#00984E"/>
</linearGradient>
<clipPath id="clip0_144_1556">
<rect width="254" height="75" fill="white"/>
</clipPath>
</defs>
</svg>
