<?xml version="1.0" encoding="utf-8"?>
<!-- Generator: Adobe Illustrator 25.2.3, SVG Export Plug-In . SVG Version: 6.00 Build 0)  -->
<svg version="1.1" id="圖層_1" xmlns="http://www.w3.org/2000/svg" xmlns:xlink="http://www.w3.org/1999/xlink" x="0px" y="0px"
	 viewBox="0 0 24.5 22" style="enable-background:new 0 0 24.5 22;" xml:space="preserve">
<style type="text/css">
	.st0{fill:#FFFFFF;}
</style>
<path class="st0" d="M12.6,16.4c0.2,0,0.4-0.1,0.6-0.2c0.2-0.1,0.2-0.3,0.2-0.6c0-0.2-0.1-0.4-0.2-0.6c-0.1-0.2-0.3-0.2-0.6-0.2
	c-0.2,0-0.4,0.1-0.6,0.2c-0.2,0.2-0.2,0.3-0.2,0.6c0,0.2,0.1,0.4,0.2,0.6C12.2,16.3,12.4,16.4,12.6,16.4z M12,12.5h1.4V5.8H12V12.5z
	 M12.6,21.6c-1.4,0-2.8-0.3-4-0.8c-1.3-0.5-2.3-1.3-3.3-2.2c-0.9-0.9-1.7-2-2.2-3.3c-0.5-1.3-0.8-2.6-0.8-4s0.3-2.8,0.8-4
	c0.5-1.3,1.3-2.4,2.2-3.3c0.9-0.9,2-1.7,3.3-2.2c1.3-0.5,2.6-0.8,4-0.8s2.8,0.3,4,0.8C17.9,2.3,19,3,19.9,3.9c0.9,0.9,1.7,2,2.2,3.3
	c0.5,1.3,0.8,2.6,0.8,4s-0.3,2.8-0.8,4c-0.5,1.3-1.3,2.3-2.2,3.3c-0.9,0.9-2,1.7-3.3,2.2C15.4,21.3,14.1,21.6,12.6,21.6z"/>
</svg>
