<?xml version="1.0" encoding="utf-8"?>
<!-- Generator: Adobe Illustrator 25.2.3, SVG Export Plug-In . SVG Version: 6.00 Build 0)  -->
<svg version="1.1" id="圖層_1" xmlns="http://www.w3.org/2000/svg" xmlns:xlink="http://www.w3.org/1999/xlink" x="0px" y="0px"
	 viewBox="0 0 24.5 22" style="enable-background:new 0 0 24.5 22;" xml:space="preserve">
<style type="text/css">
	.st0{fill:#919191;}
</style>
<path class="st0" d="M1.4,11.2c0-2.8,1.1-5.4,3.1-7.4c2-2,4.6-3.1,7.4-3.1c1.5,0,2.9,0.3,4.3,0.9l-1.7,1.7c-1.7-0.6-3.4-0.6-5.1,0
	c-1.7,0.5-3.1,1.6-4.1,3s-1.6,3.1-1.6,4.8c0,1.7,0.5,3.4,1.6,4.9c1,1.4,2.5,2.5,4.1,3s3.4,0.5,5.1,0c1.7-0.5,3.1-1.6,4.1-3
	c1-1.4,1.6-3.1,1.6-4.8c0-1.2-0.2-2.3-0.7-3.4L21,6.1c0.8,1.4,1.2,2.9,1.3,4.5c0.1,1.6-0.2,3.2-0.8,4.6c-0.6,1.5-1.6,2.8-2.8,3.8
	s-2.6,1.8-4.2,2.2c-1.5,0.4-3.2,0.4-4.7,0.1c-1.6-0.3-3-1-4.3-2c-1.3-1-2.3-2.2-3-3.6S1.4,12.7,1.4,11.2z M11.2,11.4
	c-0.4-0.4-0.6-1,1.5-3.1C14.1,7,15.6,6,17.3,5.3c-0.7,1.7-1.8,3.3-3.1,4.6c-1.4,1.4-2.1,1.8-2.5,1.8c-0.1,0-0.2,0-0.3-0.1
	C11.3,11.5,11.3,11.5,11.2,11.4z"/>
</svg>
