<?xml version="1.0" encoding="utf-8"?>
<!-- Generator: Adobe Illustrator 25.2.3, SVG Export Plug-In . SVG Version: 6.00 Build 0)  -->
<svg version="1.1" id="圖層_1" xmlns="http://www.w3.org/2000/svg" xmlns:xlink="http://www.w3.org/1999/xlink" x="0px" y="0px"
	 viewBox="0 0 24.5 22" style="enable-background:new 0 0 24.5 22;" xml:space="preserve">
<style type="text/css">
	.st0{fill:none;stroke:#1671FE;stroke-width:1.1635;stroke-miterlimit:10;}
</style>
<path class="st0" d="M12.4,8.1c1.2,0,2.2-1,2.2-2.2c0-1.2-1-2.2-2.2-2.2c-1.2,0-2.2,1-2.2,2.2C10.2,7.2,11.2,8.1,12.4,8.1z"/>
<path class="st0" d="M17.5,5.9c0-2.8-2.3-5-5.1-5c-2.8,0-5.1,2.2-5.1,5c0,2.1,1.7,3.8,1.7,3.8l3.4,3.5l3.4-3.5
	C15.8,9.7,17.5,8.1,17.5,5.9z"/>
<path class="st0" d="M9.6,10.2l-1,8.2l-6.7,0.9l2.3-9.4l4.4-0.7"/>
<path class="st0" d="M15.5,10l0.9,0.4l-0.3,9.7l-7.6-1.6"/>
<path class="st0" d="M16.4,10.4l4.2-0.8l2.2,8.9l-6.7,1.7"/>
</svg>
