<?xml version="1.0" encoding="utf-8"?>
<!-- Generator: Adobe Illustrator 25.2.3, SVG Export Plug-In . SVG Version: 6.00 Build 0)  -->
<svg version="1.1" id="圖層_1" xmlns="http://www.w3.org/2000/svg" xmlns:xlink="http://www.w3.org/1999/xlink" x="0px" y="0px"
	 viewBox="0 0 24.5 22" style="enable-background:new 0 0 24.5 22;" xml:space="preserve">
<style type="text/css">
	.st0{fill:#53D49F;}
</style>
<g>
	<path class="st0" d="M2.1,21.5l17.2-5.6L7.9,4.4L2.1,21.5z M11.2,16.5l-2.3,0.8l-1.7-5.1l1.3-3.8L11.2,16.5z M6.2,15.1l0.9,2.8
		l-2.1,0.7L6.2,15.1z M13,15.9l-1.9-5.7l4.8,4.8L13,15.9z"/>
	<path class="st0" d="M15.8,4.8c0.4,0.3,0.8,0.4,1.3,0.4c0.3,0,0.6-0.1,0.9-0.2c0.2-0.1,0.5-0.3,0.6-0.3c0.2-0.3,0.4-0.5,0.5-0.8
		c0.1-0.3,0.2-0.6,0.2-0.9c0-0.5-0.1-0.9-0.4-1.3c-0.2-0.4-0.6-0.7-1-0.9c-0.4-0.1-0.9-0.2-1.3-0.1c-0.5,0.1-0.9,0.3-1.2,0.6
		c-0.3,0.3-0.5,0.8-0.6,1.2c-0.1,0.4-0.1,0.9,0.1,1.3C15.1,4.2,15.4,4.5,15.8,4.8z"/>
	<path class="st0" d="M15.8,8.8c0,0.5,0.4,0.9,0.9,0.9c1.7,0,3.4-0.7,4.6-1.9c1.2-1.2,1.9-2.9,1.9-4.6c0-0.5-0.4-0.9-0.9-0.9
		s-0.9,0.4-0.9,0.9c0,1.2-0.5,2.4-1.3,3.2c-0.8,0.8-2.1,1.3-3.2,1.3C16.2,7.9,15.8,8.3,15.8,8.8z"/>
	<path class="st0" d="M10.7,5.1c0.1,0,0.2,0.1,0.3,0.1c0.4,0,0.7-0.2,0.9-0.6l1-2.7c0.2-0.5-0.1-1-0.5-1.2c-0.5-0.2-1,0.1-1.2,0.5
		l-1,2.7C10,4.4,10.2,4.9,10.7,5.1z"/>
	<path class="st0" d="M21.9,10.8l-2.8,0.9c-0.5,0.2-0.8,0.7-0.6,1.2c0.1,0.4,0.5,0.6,0.9,0.6c0.1,0,0.2,0,0.3,0l2.8-0.9
		c0.5-0.2,0.8-0.7,0.6-1.2C22.9,10.9,22.4,10.7,21.9,10.8z"/>
</g>
</svg>
