<?xml version="1.0" encoding="utf-8"?>
<!-- Generator: Adobe Illustrator 25.2.3, SVG Export Plug-In . SVG Version: 6.00 Build 0)  -->
<svg version="1.1" id="圖層_1" xmlns="http://www.w3.org/2000/svg" xmlns:xlink="http://www.w3.org/1999/xlink" x="0px" y="0px"
	 viewBox="0 0 23.5 22" style="enable-background:new 0 0 23.5 22;" xml:space="preserve">
<style type="text/css">
	.st0{fill:#FFFFFF;}
</style>
<path class="st0" d="M1.4,5.2V0.7h4.5v1.5H3v2.9H1.4z M1.4,21.4v-4.5H3v2.9h2.9v1.5H1.4z M17.6,21.4v-1.5h2.9v-2.9h1.5v4.5H17.6z
	 M20.5,5.2V2.3h-2.9V0.7h4.5v4.5H20.5z M17.6,17h1.6v1.6h-1.6V17z M17.6,13.7h1.6v1.6h-1.6V13.7z M16,15.3h1.6V17H16V15.3z M14.4,17
	H16v1.6h-1.6V17z M12.8,15.3h1.6V17h-1.6V15.3z M16,12.1h1.6v1.6H16V12.1z M14.4,13.7H16v1.6h-1.6V13.7z M12.8,12.1h1.6v1.6h-1.6
	V12.1z M19.3,3.5V10h-6.5V3.5H19.3z M10.7,12.1v6.5H4.2v-6.5H10.7z M10.7,3.5V10H4.2V3.5H10.7z M9.4,17.3v-3.9H5.5v3.9H9.4z
	 M9.4,8.7V4.8H5.5v3.9H9.4z M18,8.7V4.8H14v3.9H18z"/>
</svg>
