<?xml version="1.0" encoding="utf-8"?>
<!-- Generator: Adobe Illustrator 25.2.3, SVG Export Plug-In . SVG Version: 6.00 Build 0)  -->
<svg version="1.1" id="圖層_1" xmlns="http://www.w3.org/2000/svg" xmlns:xlink="http://www.w3.org/1999/xlink" x="0px" y="0px"
	 viewBox="0 0 24.5 22" style="enable-background:new 0 0 24.5 22;" xml:space="preserve">
<style type="text/css">
	.st0{fill:#53D49F;}
</style>
<path class="st0" d="M22,18.3H0.8c0-0.1,0-0.1,0-0.2c0-0.1-0.1-0.1-0.1-0.2c-0.1-0.1-0.1-0.1-0.2-0.1c-0.1,0-0.1,0-0.2,0v-0.9
	c0.1,0,0.3-0.1,0.4-0.2c0.1-0.1,0.2-0.2,0.2-0.4c0-0.1-0.1-0.3-0.2-0.4c-0.1-0.1-0.2-0.2-0.4-0.2v-0.9c0.1,0,0.3-0.1,0.4-0.2
	c0.1-0.1,0.2-0.2,0.2-0.4c0-0.1-0.1-0.3-0.2-0.4c-0.1-0.1-0.2-0.2-0.4-0.2v-0.9c0.1,0,0.3-0.1,0.4-0.2c0.1-0.1,0.2-0.2,0.2-0.4
	c0-0.1-0.1-0.3-0.2-0.4c-0.1-0.1-0.2-0.2-0.4-0.2v-0.9c0.1,0,0.3-0.1,0.4-0.2c0.1-0.1,0.2-0.2,0.2-0.4c0-0.1-0.1-0.3-0.2-0.4
	S0.4,9.5,0.2,9.5V8.6c0.1,0,0.3-0.1,0.4-0.2C0.7,8.3,0.8,8.1,0.8,8c0-0.1-0.1-0.3-0.2-0.4C0.5,7.5,0.4,7.4,0.2,7.4V6.5
	c0.1,0,0.3-0.1,0.4-0.2c0.1-0.1,0.2-0.2,0.2-0.4c0-0.1-0.1-0.3-0.2-0.4S0.4,5.4,0.2,5.4V4.4c0.1,0,0.3-0.1,0.4-0.2
	C0.7,4.2,0.8,4,0.8,3.9c0-0.1-0.1-0.3-0.2-0.4C0.5,3.4,0.4,3.3,0.2,3.3V2.4c0.1,0,0.3-0.1,0.4-0.2s0.2-0.2,0.2-0.4H22
	c0.3,0,0.6,0.1,0.9,0.2c0.3,0.1,0.5,0.3,0.7,0.5c0.2,0.2,0.4,0.5,0.5,0.7c0.1,0.3,0.2,0.6,0.2,0.9v12c0,0.3-0.1,0.6-0.2,0.9
	c-0.1,0.3-0.3,0.5-0.5,0.7c-0.2,0.2-0.5,0.4-0.7,0.5C22.6,18.3,22.3,18.3,22,18.3z"/>
</svg>
