<?xml version="1.0" encoding="utf-8"?>
<!-- Generator: Adobe Illustrator 25.2.3, SVG Export Plug-In . SVG Version: 6.00 Build 0)  -->
<svg version="1.1" id="圖層_1" xmlns="http://www.w3.org/2000/svg" xmlns:xlink="http://www.w3.org/1999/xlink" x="0px" y="0px"
	 viewBox="0 0 24.5 22" style="enable-background:new 0 0 24.5 22;" xml:space="preserve">
<style type="text/css">
	.st0{fill:#53D49F;}
</style>
<path class="st0" d="M22.2,19.8H0.6c0-0.1,0-0.1,0-0.2c0-0.1-0.1-0.1-0.1-0.2c-0.1-0.1-0.1-0.1-0.2-0.1c-0.1,0-0.1,0-0.2,0v-1
	c0.2,0,0.3-0.1,0.4-0.2c0.1-0.1,0.2-0.3,0.2-0.4c0-0.2-0.1-0.3-0.2-0.4c-0.1-0.1-0.3-0.2-0.4-0.2v-1c0.2,0,0.3-0.1,0.4-0.2
	c0.1-0.1,0.2-0.3,0.2-0.4c0-0.2-0.1-0.3-0.2-0.4C0.3,15.1,0.2,15,0,15v-1c0.2,0,0.3-0.1,0.4-0.2c0.1-0.1,0.2-0.3,0.2-0.4
	c0-0.2-0.1-0.3-0.2-0.4C0.3,13,0.2,12.9,0,12.9v-1c0.2,0,0.3-0.1,0.4-0.2c0.1-0.1,0.2-0.3,0.2-0.4c0-0.2-0.1-0.3-0.2-0.4
	S0.2,10.8,0,10.8v-1c0.2,0,0.3-0.1,0.4-0.2c0.1-0.1,0.2-0.3,0.2-0.4c0-0.2-0.1-0.3-0.2-0.4S0.2,8.7,0,8.7v-1c0.2,0,0.3-0.1,0.4-0.2
	c0.1-0.1,0.2-0.3,0.2-0.4c0-0.2-0.1-0.3-0.2-0.4C0.3,6.7,0.2,6.6,0,6.6v-1c0.2,0,0.3-0.1,0.4-0.2c0.1-0.1,0.2-0.3,0.2-0.4
	c0-0.2-0.1-0.3-0.2-0.4C0.3,4.6,0.2,4.5,0,4.5v-1c0.2,0,0.3-0.1,0.4-0.2C0.5,3.3,0.6,3.1,0.6,3h21.6c0.3,0,0.6,0.1,0.9,0.2
	c0.3,0.1,0.5,0.3,0.7,0.5c0.2,0.2,0.4,0.5,0.5,0.7c0.1,0.3,0.2,0.6,0.2,0.9v12.2c0,0.3-0.1,0.6-0.2,0.9c-0.1,0.3-0.3,0.5-0.5,0.7
	c-0.2,0.2-0.5,0.4-0.7,0.5C22.8,19.8,22.5,19.8,22.2,19.8z"/>
</svg>
