<?xml version="1.0" encoding="utf-8"?>
<!-- Generator: Adobe Illustrator 25.2.3, SVG Export Plug-In . SVG Version: 6.00 Build 0)  -->
<svg version="1.1" id="圖層_1" xmlns="http://www.w3.org/2000/svg" xmlns:xlink="http://www.w3.org/1999/xlink" x="0px" y="0px"
	 viewBox="0 0 158 22" style="enable-background:new 0 0 158 22;" xml:space="preserve">
<style type="text/css">
	.st0{fill:#004DA0;}
</style>
<path class="st0" d="M156.44,6.37c0,1.25-1,2.24-2.28,2.24c-1.28,0-2.29-0.99-2.29-2.24c0-1.25,1.03-2.21,2.29-2.21
	C155.42,4.16,156.44,5.14,156.44,6.37z M152.5,6.38c0,0.95,0.71,1.71,1.66,1.71c0.95,0,1.65-0.76,1.65-1.71s-0.7-1.71-1.65-1.71
	C153.21,4.67,152.5,5.43,152.5,6.38z M153.84,7.47h-0.58V5.35c0.17-0.03,0.49-0.06,0.88-0.06c0.45,0,0.65,0.06,0.79,0.16
	c0.14,0.09,0.24,0.25,0.24,0.46c0,0.22-0.2,0.41-0.47,0.49v0.03c0.22,0.08,0.34,0.25,0.41,0.54c0.06,0.32,0.12,0.43,0.16,0.51h-0.65
	c-0.06-0.08-0.11-0.26-0.16-0.49c-0.04-0.22-0.16-0.32-0.39-0.32h-0.22L153.84,7.47L153.84,7.47z M153.85,6.26h0.22
	c0.25,0,0.43-0.09,0.43-0.28c0-0.19-0.14-0.29-0.41-0.29c-0.11,0-0.18,0.01-0.25,0.01V6.26L153.85,6.26z"/>
<path class="st0" d="M66.6,4.15h-2.62v15.07h2.62V4.15z"/>
<path class="st0" d="M95.6,10.82h-6.77V4.15h-2.61v15.07h2.61v-6.66h6.77v6.66h2.64V4.15H95.6V10.82z"/>
<path class="st0" d="M99.84,5.89h5.09v13.44h2.62V5.89h5.08V4.15H99.84V5.89z"/>
<path class="st0" d="M137.44,5.89h5.09v13.44h2.62V5.89h5.08V4.15h-12.79V5.89z"/>
<path class="st0" d="M114.29,19.33h10.51v-1.74h-7.88v-5.34h6.51v-1.72h-6.51V5.89h7.88V4.15h-10.51V19.33z"/>
<path class="st0" d="M135.9,12.6c-0.39-0.37-0.85-0.71-1.36-1.01c-0.51-0.31-1.03-0.61-1.55-0.89c-0.43-0.23-0.85-0.46-1.27-0.69
	l-0.28-0.15c-0.51-0.27-0.96-0.56-1.35-0.86c-0.39-0.3-0.71-0.61-0.94-0.94c-0.23-0.32-0.36-0.68-0.36-1.07
	c0-0.28,0.06-0.55,0.17-0.82c0.11-0.27,0.29-0.51,0.51-0.72c0.22-0.21,0.51-0.38,0.86-0.51c0.35-0.13,0.76-0.2,1.22-0.2
	c0.52,0,1,0.08,1.41,0.22s0.78,0.36,1.1,0.63c0.32,0.27,0.6,0.61,0.83,0.98c0.23,0.38,0.42,0.81,0.57,1.27l0.02,0.06l1.39-0.65
	l-0.01-0.05c-0.37-1.15-0.97-2.05-1.8-2.66c-0.83-0.61-1.97-0.92-3.39-0.92c-0.79,0-1.5,0.11-2.11,0.31
	c-0.6,0.21-1.13,0.5-1.55,0.87c-0.42,0.37-0.74,0.81-0.96,1.32c-0.22,0.51-0.33,1.06-0.33,1.65s0.12,1.12,0.36,1.58
	c0.24,0.45,0.55,0.87,0.94,1.23c0.38,0.36,0.82,0.69,1.32,0.99c0.51,0.31,1.02,0.59,1.51,0.85c0.51,0.27,1.01,0.54,1.51,0.81
	c0.5,0.27,0.93,0.55,1.31,0.86c0.38,0.3,0.69,0.63,0.92,0.99c0.23,0.35,0.35,0.76,0.35,1.21c0,0.37-0.09,0.71-0.25,1
	c-0.17,0.29-0.39,0.54-0.67,0.73c-0.27,0.2-0.59,0.35-0.95,0.45c-0.35,0.1-0.71,0.15-1.09,0.15c-0.48,0-0.94-0.07-1.36-0.21
	c-0.43-0.14-0.82-0.35-1.17-0.62c-0.35-0.27-0.65-0.6-0.92-0.99c-0.26-0.39-0.47-0.83-0.63-1.32l-0.02-0.06l-1.46,0.61l0.02,0.05
	c0.2,0.56,0.46,1.08,0.77,1.53c0.31,0.45,0.69,0.83,1.12,1.14c0.44,0.31,0.94,0.55,1.52,0.71c0.57,0.16,1.22,0.24,1.94,0.24
	c0.89,0,1.68-0.12,2.35-0.35c0.67-0.23,1.24-0.55,1.7-0.95c0.46-0.4,0.8-0.88,1.03-1.41c0.23-0.53,0.34-1.11,0.34-1.72
	c0-0.54-0.12-1.04-0.37-1.48C136.63,13.36,136.3,12.96,135.9,12.6L135.9,12.6z"/>
<path class="st0" d="M78.37,12.98h2.54v4.49c-1.24,0.95-3.98,0.83-5.25,0.34c-3.81-1.48-3.55-5.96-3.55-5.96
	c-0.03-6.06,4.03-6.39,5.55-6.37c1.34,0.02,3.15,0.68,4.67,3.1l1.12-0.79l-0.03-0.04c-0.3-0.51-0.66-1-1.06-1.46
	c-0.41-0.47-0.88-0.88-1.41-1.24c-0.53-0.36-1.12-0.64-1.76-0.86c-0.64-0.22-1.35-0.33-2.1-0.33c-0.76,0-1.54,0.1-2.24,0.3
	c-0.7,0.2-1.35,0.48-1.95,0.83c-0.59,0.35-1.13,0.78-1.61,1.28c-0.48,0.49-0.88,1.04-1.21,1.63c-0.33,0.59-0.58,1.23-0.76,1.89
	c-0.18,0.67-0.27,1.37-0.27,2.07c0,0.7,0.09,1.39,0.28,2.05c0.18,0.66,0.45,1.28,0.79,1.86c0.34,0.57,0.76,1.1,1.25,1.58
	c0.49,0.47,1.04,0.88,1.65,1.22c0.61,0.34,1.28,0.61,1.98,0.79c0.71,0.19,1.47,0.28,2.25,0.28c0.73,0,1.4-0.03,2-0.09
	c0.58-0.06,1.13-0.16,1.62-0.28c0.48-0.13,0.95-0.28,1.37-0.46c0.42-0.18,0.84-0.38,1.26-0.63l0.03-0.01v-6.67h-5.18L78.37,12.98
	L78.37,12.98z"/>
<path class="st0" d="M54.66,11.05h-9.56v1.36h4.08v6.82h2.62v-6.87c0,0,1.99-0.04,2.87-1.28C54.68,11.08,54.7,11.05,54.66,11.05z"/>
<path class="st0" d="M62.24,19.23h-3c0,0-4.59-6.28-4.96-6.78c-0.02-0.03,0.01-0.04,0.01-0.04c0.36-0.12,3.43-1.28,3.34-4.19V8.2
	C57.61,7.25,57.28,6,55.76,5.42c-0.38-0.15-0.8-0.22-1.25-0.22h-2.71v4.81h-2.62V4.16h5.79c0.91,0,1.71,0.1,2.38,0.29
	c0.68,0.19,1.25,0.47,1.71,0.82c0.61,0.47,1.41,1.27,1.38,2.84c-0.04,2.42-1.15,3.42-3.2,4.4l5.01,6.67
	C62.26,19.19,62.29,19.22,62.24,19.23L62.24,19.23z"/>
<path class="st0" d="M30.16,10.93l0.12-0.08l-0.3-1.46l-0.25,0.14c-0.62,0.36-1.23,0.68-1.81,0.98V7.81h2.24V6.36h-2.24V1.47h-1.88
	v4.88h-1.21c0.33-1.53,0.46-2.62,0.46-2.64l0.02-0.18L23.8,3.12l-0.03,0.24c0,0.04-0.43,3.86-1.75,7.12l-0.06,0.14l1.26,1.08
	l0.11-0.26c0.49-1.2,0.87-2.47,1.17-3.62h1.55v3.63c-2.1,0.98-3.57,1.49-3.59,1.49L22.25,13l0.67,1.57l0.19-0.07
	c0.02-0.01,1.21-0.45,2.95-1.29v7.26h1.88v-8.23C28.64,11.85,29.4,11.41,30.16,10.93L30.16,10.93z"/>
<path class="st0" d="M35.23,17.37L35.1,17.2c-1.4-1.93-3.44-3.55-3.46-3.56l-0.12-0.09l-1.27,0.87l0.21,0.17
	c0.02,0.02,2.16,1.8,3.3,3.53l0.11,0.18L35.23,17.37L35.23,17.37z"/>
<path class="st0" d="M38.39,11.6V9.68h-1.88v1.92H29.6v1.47h6.92v5.12c0,0.69-0.26,0.69-0.36,0.69h-0.01c0,0-0.7,0.05-2.01-0.3
	l-0.28-0.07l0.11,1.66l0.15,0.04c0.99,0.25,1.81,0.28,2.1,0.28c0.07,0,0.11,0,0.11,0c1.92,0,2.07-1.64,2.07-2.14v-5.26h2.15V11.6
	L38.39,11.6L38.39,11.6z"/>
<path class="st0" d="M34.11,8.09H30.3v1.45h9.54V8.09h-3.85V5.6h4.55V4.15h-4.55V1.49h-1.88v2.67H29.6V5.6h4.52V8.09z"/>
<path class="st0" d="M8.88,10.42h4.02c-0.22,0.51-0.48,1.01-0.77,1.51H8.88v8.54h1.87v-7.09h0.89v5.73h1.88v-5.73h0.9v5.73h1.73
	l0.09,1.3l0.18,0.01c0.48,0.04,0.79,0.03,0.79,0.03c1.92,0,2.07-1.64,2.07-2.14v-6.4h-5.45c0.26-0.49,0.51-0.99,0.73-1.51h4.72V8.95
	H8.88V10.42L8.88,10.42z M16.3,13.38h1.1v4.81c0,0.69-0.26,0.69-0.38,0.69c0,0-0.23,0.01-0.65-0.04l-0.08-0.01V13.38L16.3,13.38z"/>
<path class="st0" d="M17.4,6.46h-2.39V1.47h-1.88v4.99h-2.38V2.67H8.88v5.24h10.4V2.59H17.4V6.46z"/>
<path class="st0" d="M8.1,14.28c-0.56,0.25-1.23,0.5-1.93,0.75v-4.61h1.76V8.97H6.17V4.82h2.31V3.37H1.99v1.45h2.31v4.14H2.53v1.45
	h1.76v5.23c-1.3,0.41-2.34,0.7-2.36,0.71l-0.21,0.06l0.56,1.5l0.18-0.05c0.03-0.01,3.35-0.92,6.01-2.25l0.14-0.07l-0.27-1.36
	L8.1,14.28L8.1,14.28z"/>
</svg>
