<svg width="236" height="75" viewBox="0 0 236 75" fill="none" xmlns="http://www.w3.org/2000/svg">
<path d="M111.647 61.576C107.884 61.576 104.582 60.7312 101.74 59.0416C98.9368 57.352 96.7672 54.952 95.2312 51.8416C93.7336 48.6928 92.9848 45.0256 92.9848 40.84C92.9848 36.6544 93.7336 33.0064 95.2312 29.896C96.7672 26.7472 98.9368 24.328 101.74 22.6384C104.582 20.9488 107.903 20.104 111.705 20.104C114.93 20.104 117.734 20.7184 120.114 21.9472C122.534 23.176 124.319 24.9232 125.471 27.1888L120.748 31.336C118.713 28.264 115.737 26.728 111.82 26.728C108.402 26.728 105.791 27.9376 103.986 30.3568C102.182 32.7376 101.279 36.232 101.279 40.84C101.279 45.4096 102.162 48.904 103.929 51.3232C105.695 53.7424 108.249 54.952 111.59 54.952C115.737 54.952 118.79 53.416 120.748 50.344L125.471 54.4912C124.319 56.7568 122.534 58.504 120.114 59.7328C117.734 60.9616 114.911 61.576 111.647 61.576ZM143.296 61.576C141.414 61.576 139.724 61.192 138.227 60.424C136.729 59.6176 135.558 58.5232 134.713 57.1408C133.868 55.72 133.446 54.1456 133.446 52.4176C133.446 49.4608 134.617 47.1952 136.96 45.6208C139.302 44.0464 142.643 43.2592 146.982 43.2592H151.475V42.0496C151.475 40.5136 151.014 39.3424 150.092 38.536C149.209 37.6912 147.942 37.2688 146.291 37.2688C144.563 37.2688 142.912 37.576 141.337 38.1904C139.763 38.8048 138.476 39.6496 137.478 40.7248L134.252 36.4624C135.827 34.9648 137.689 33.7936 139.84 32.9488C141.99 32.0656 144.217 31.624 146.521 31.624C150.361 31.624 153.376 32.5264 155.564 34.3312C157.753 36.136 158.848 38.632 158.848 41.8192V54.952C158.848 55.8352 158.905 56.872 159.02 58.0624C159.174 59.2528 159.347 60.232 159.539 61H153.03C152.8 60.5008 152.627 60.0208 152.512 59.56C152.396 59.0608 152.3 58.3888 152.224 57.544H152.108C149.92 60.232 146.982 61.576 143.296 61.576ZM145.081 56.0464C146.924 56.0464 148.441 55.5856 149.632 54.664C150.86 53.704 151.475 52.4944 151.475 51.0352V48.1552H146.752C144.793 48.1552 143.276 48.52 142.201 49.2496C141.164 49.9792 140.646 51.0352 140.646 52.4176C140.646 53.5696 141.03 54.472 141.798 55.1248C142.604 55.7392 143.699 56.0464 145.081 56.0464ZM178.583 61.576C176.701 61.576 175.012 61.192 173.514 60.424C172.017 59.6176 170.845 58.5232 170.001 57.1408C169.156 55.72 168.733 54.1456 168.733 52.4176C168.733 49.4608 169.905 47.1952 172.247 45.6208C174.589 44.0464 177.93 43.2592 182.269 43.2592H186.762V42.0496C186.762 40.5136 186.301 39.3424 185.38 38.536C184.497 37.6912 183.229 37.2688 181.578 37.2688C179.85 37.2688 178.199 37.576 176.625 38.1904C175.05 38.8048 173.764 39.6496 172.765 40.7248L169.54 36.4624C171.114 34.9648 172.977 33.7936 175.127 32.9488C177.277 32.0656 179.505 31.624 181.809 31.624C185.649 31.624 188.663 32.5264 190.852 34.3312C193.041 36.136 194.135 38.632 194.135 41.8192V54.952C194.135 55.8352 194.193 56.872 194.308 58.0624C194.461 59.2528 194.634 60.232 194.826 61H188.317C188.087 60.5008 187.914 60.0208 187.799 59.56C187.684 59.0608 187.588 58.3888 187.511 57.544H187.396C185.207 60.232 182.269 61.576 178.583 61.576ZM180.369 56.0464C182.212 56.0464 183.729 55.5856 184.919 54.664C186.148 53.704 186.762 52.4944 186.762 51.0352V48.1552H182.039C180.081 48.1552 178.564 48.52 177.489 49.2496C176.452 49.9792 175.933 51.0352 175.933 52.4176C175.933 53.5696 176.317 54.472 177.085 55.1248C177.892 55.7392 178.986 56.0464 180.369 56.0464ZM218.075 61.576C215.042 61.576 212.296 60.9616 209.839 59.7328C207.419 58.504 205.442 56.7376 203.906 54.4336L208.687 49.8256C209.954 51.3232 211.49 52.552 213.295 53.512C215.099 54.472 216.789 54.952 218.363 54.952C220.13 54.952 221.551 54.5488 222.626 53.7424C223.701 52.936 224.239 51.88 224.239 50.5744C224.239 49.6144 224.066 48.8272 223.72 48.2128C223.375 47.5984 222.722 46.984 221.762 46.3696C220.802 45.7168 219.227 44.8528 217.039 43.7776C214.159 42.3568 211.893 41.032 210.242 39.8032C208.591 38.5744 207.362 37.2496 206.555 35.8288C205.787 34.3696 205.403 32.68 205.403 30.76C205.403 28.648 205.96 26.7856 207.074 25.1728C208.187 23.56 209.762 22.312 211.797 21.4288C213.832 20.5456 216.175 20.104 218.824 20.104C221.743 20.104 224.315 20.6608 226.543 21.7744C228.808 22.888 230.459 24.424 231.496 26.3824L226.255 30.2992C224.335 27.9184 221.973 26.728 219.17 26.728C217.403 26.728 216.04 27.0736 215.08 27.7648C214.12 28.456 213.64 29.4352 213.64 30.7024C213.64 31.4704 213.871 32.1616 214.331 32.776C214.831 33.3904 215.714 34.0624 216.981 34.792C218.248 35.5216 220.149 36.4816 222.683 37.672C225.141 38.824 227.061 39.976 228.443 41.128C229.864 42.28 230.882 43.5664 231.496 44.9872C232.111 46.408 232.418 48.0976 232.418 50.056C232.418 52.36 231.823 54.3952 230.632 56.1616C229.48 57.8896 227.81 59.2336 225.621 60.1936C223.471 61.1152 220.955 61.576 218.075 61.576Z" fill="#39B8B0"/>
<path d="M79 40.5945C79 41.5651 79 42.5357 79 43.5264C78.9797 43.6073 78.9392 43.7084 78.9189 43.7893C78.6958 44.6183 78.5741 45.4878 78.2495 46.2763C76.4646 50.9067 72.0834 53.8993 67.114 53.8993C61.4753 53.8993 55.8366 53.8993 50.2181 53.8993C49.3256 53.8993 48.5954 54.243 48.0072 54.9103C47.3784 55.618 47.277 56.4672 47.2973 57.3771C47.3176 59.0958 48.2709 60.2483 49.9747 60.5516C51.1511 60.7538 52.3478 60.956 53.5243 61.1582C56.9521 61.7446 60.4003 62.331 63.8281 62.9174C64.2947 62.9982 64.6598 63.3217 64.7003 63.7261C64.7409 64.1508 64.7003 64.5754 64.7003 65C47.9058 65 31.1316 65 14.3371 65C14.3371 64.636 14.3371 64.3125 14.3371 63.9688C14.3371 63.4026 14.6616 63.0185 15.2092 62.9174C16.7711 62.6343 18.3531 62.3714 19.915 62.1086C22.998 61.5828 26.0811 61.0976 29.1438 60.5314C30.3811 60.309 31.3344 59.6215 31.6387 58.3274C31.7401 57.923 31.7198 57.5186 31.7401 57.094C31.8415 55.3551 30.5028 53.8588 28.5353 53.879C22.9169 53.9397 17.3187 53.8993 11.7002 53.8993C11.0917 53.8993 10.4833 53.8588 9.87475 53.7577C7.19737 53.2927 4.92565 52.0997 3.10016 50.0979C0.159087 46.7818 -0.631959 42.9401 0.483619 38.6939C1.03127 36.6517 2.22798 34.9734 3.70865 33.4771C4.72281 32.4459 5.45301 31.2529 5.77754 29.8375C5.93981 29.1096 5.98037 28.3817 6.16292 27.6538C7.09595 23.7109 9.57051 21.1632 13.3432 19.768C15.0673 19.121 16.4465 18.0695 17.3795 16.4519C17.6027 16.0475 17.8663 15.6634 18.1503 15.2994C20.7263 12.0238 24.1339 10.6893 28.2514 11.0532C30.0769 11.215 31.8415 10.9521 33.4033 9.90067C34.6609 9.05144 36.0198 8.44484 37.5208 8.16176C37.8453 8.1011 38.1699 8.04044 38.4944 8C39.2246 8 39.2455 8 39.9757 8C39.9959 8.02022 40.7458 8.06066 40.7661 8.06066C42.6119 8.22242 44.2548 8.93012 45.7761 9.94111C47.3176 10.9521 49.062 11.215 50.8672 11.0532C52.287 10.9319 53.6865 10.9723 55.0658 11.3363C58.0069 12.1249 60.2177 13.8638 61.7593 16.4722C62.0229 16.917 62.3069 17.3416 62.6517 17.7258C63.605 18.8379 64.8829 19.4243 66.2216 19.9702C69.8725 21.4463 72.2051 24.0951 72.9962 27.9975C73.1381 28.685 73.1787 29.3927 73.3613 30.06C73.7264 31.4956 74.5377 32.6683 75.5721 33.6995C76.9717 35.1149 78.0061 36.7325 78.5741 38.6332C78.7363 39.2802 78.858 39.9475 79 40.5945Z" fill="#39B8B0"/>
</svg>
