<svg width="434" height="248" viewBox="0 0 434 248" fill="none" xmlns="http://www.w3.org/2000/svg">
<path fill-rule="evenodd" clip-rule="evenodd" d="M322.023 113.174L229.425 165.114C219.806 170.509 204.211 170.509 194.594 165.114L101.996 113.174C92.3775 107.779 92.3775 99.0313 101.996 93.6366L194.594 41.6969C204.211 36.3016 219.806 36.3016 229.425 41.6969L322.023 93.6366C331.641 99.0313 331.641 107.779 322.023 113.174Z" stroke="#E7E7E7"/>
<path fill-rule="evenodd" clip-rule="evenodd" d="M419.436 139.976L248.929 235.554C231.217 245.482 218 255 184.791 235.554L14.2838 139.976C-3.42792 130.048 -3.42792 113.951 14.2838 104.024L184.791 8.44621C202.501 -1.48207 231.217 -1.48207 248.929 8.44621L419.436 104.024C437.147 113.951 437.147 130.048 419.436 139.976Z" stroke="#E7E7E7"/>
</svg>
