<svg width="2438" height="1490" viewBox="0 0 2438 1490" fill="none" xmlns="http://www.w3.org/2000/svg">
<path d="M1195.69 858L1093.69 892L145.687 1489" stroke="#D1D1D1"/>
<path d="M1162.19 839.5L983.072 827.929C973.531 827.313 963.951 828.068 954.625 830.171L146.187 1012.5" stroke="url(#paint0_linear_6464_129157)"/>
<path fill-rule="evenodd" clip-rule="evenodd" d="M1824.66 730.838L1311.36 1016.73C1260.45 1045.09 1177.92 1045.09 1127.01 1016.73L613.71 730.838C562.805 702.484 562.805 656.514 613.71 628.162L1127.01 342.266C1177.92 313.911 1260.45 313.911 1311.36 342.266L1824.66 628.162C1875.57 656.514 1875.57 702.484 1824.66 730.838Z" stroke="url(#paint1_radial_6464_129157)"/>
<path d="M1147.69 823L765.628 673.07C754.747 668.8 743.203 666.471 731.518 666.188L145.687 652" stroke="#D1D1D1"/>
<path d="M1290.19 826.5L1586.19 691.5" stroke="#D1D1D1"/>
<path d="M1219.19 785.5L1224.19 321.5" stroke="#D1D1D1"/>
<path d="M1174.69 807L908.798 584.216C900.72 577.448 891.623 571.999 881.844 568.071L266.687 321" stroke="#D1D1D1"/>
<path d="M1103.6 746.785L1103.98 747.106L1104.3 746.723L1103.92 746.401L1103.6 746.785ZM1062.84 712.631L1063.16 712.248L1062.77 711.926L1062.45 712.31L1062.84 712.631ZM1102.96 747.551L1102.64 747.934L1103.02 748.256L1103.34 747.872L1102.96 747.551ZM1062.19 713.397L1061.81 713.076L1061.49 713.459L1061.87 713.781L1062.19 713.397ZM909.119 583.833L909.502 584.154L909.824 583.771L909.44 583.45L909.119 583.833ZM882.031 567.608L882.217 567.144L881.753 566.957L881.567 567.421L882.031 567.608ZM908.477 584.6L908.156 584.983L908.539 585.304L908.86 584.921L908.477 584.6ZM881.658 568.536L881.194 568.349L881.008 568.813L881.471 569L881.658 568.536ZM799.982 534.654L800.446 534.84L800.632 534.376L800.169 534.19L799.982 534.654ZM718.998 502.127L719.185 501.663L718.721 501.477L718.534 501.941L718.998 502.127ZM799.609 535.582L799.423 536.046L799.887 536.232L800.073 535.768L799.609 535.582ZM718.625 503.055L718.162 502.869L717.975 503.333L718.439 503.519L718.625 503.055ZM1103.92 746.401L1063.16 712.248L1062.52 713.014L1103.28 747.168L1103.92 746.401ZM1103.34 747.872L1103.98 747.106L1103.22 746.464L1102.57 747.23L1103.34 747.872ZM1061.87 713.781L1102.64 747.934L1103.28 747.168L1062.52 713.014L1061.87 713.781ZM1062.45 712.31L1061.81 713.076L1062.58 713.718L1063.22 712.952L1062.45 712.31ZM909.44 583.45C901.282 576.614 892.094 571.111 882.217 567.144L881.844 568.072C891.623 571.999 900.72 577.448 908.798 584.216L909.44 583.45ZM908.86 584.921L909.502 584.154L908.736 583.512L908.094 584.279L908.86 584.921ZM881.471 569C891.153 572.888 900.159 578.282 908.156 584.983L908.798 584.216C900.72 577.448 891.623 571.999 881.844 568.072L881.471 569ZM881.567 567.421L881.194 568.349L882.122 568.722L882.495 567.794L881.567 567.421ZM800.169 534.19L719.185 501.663L718.812 502.591L799.796 535.118L800.169 534.19ZM800.073 535.768L800.446 534.84L799.518 534.467L799.145 535.395L800.073 535.768ZM718.439 503.519L799.423 536.046L799.796 535.118L718.812 502.591L718.439 503.519ZM718.534 501.941L718.162 502.869L719.089 503.242L719.462 502.314L718.534 501.941Z" fill="#39B8B0"/>
<path d="M1195.69 795L1101.37 512.148C1093.18 487.611 1075.81 467.199 1052.9 455.198L796.687 321" stroke="#D1D1D1"/>
<path d="M1242.69 795L1326.05 495.611C1332.28 473.237 1346.1 453.729 1365.15 440.436L1537.69 320" stroke="#D1D1D1"/>
<path d="M1261.69 807L1463.96 557.903C1473.01 546.765 1484.34 537.703 1497.2 531.334L1586.69 487" stroke="#D1D1D1"/>
<path d="M1266.69 843L1381.8 865.281C1387.71 866.425 1393.51 868.1 1399.12 870.285L1585.69 943" stroke="url(#paint2_linear_6464_129157)"/>
<path d="M1235.69 861L1296.64 916.164C1305.5 924.188 1312.86 933.735 1318.35 944.355L1586.69 1463" stroke="url(#paint3_linear_6464_129157)"/>
<path fill-rule="evenodd" clip-rule="evenodd" d="M1660.84 716.948L1286.42 925.488C1249.29 946.171 1189.08 946.171 1151.95 925.488L777.535 716.948C740.404 696.265 740.404 662.733 777.535 642.052L1151.95 433.512C1189.08 412.829 1249.29 412.829 1286.42 433.512L1660.84 642.052C1697.97 662.733 1697.97 696.265 1660.84 716.948Z" stroke="url(#paint4_linear_6464_129157)"/>
<path fill-rule="evenodd" clip-rule="evenodd" d="M1660.84 716.948L1286.42 925.488C1249.29 946.171 1189.08 946.171 1151.95 925.488L777.535 716.948C740.404 696.265 740.404 662.733 777.535 642.052L1151.95 433.512C1189.08 412.829 1249.29 412.829 1286.42 433.512L1660.84 642.052C1697.97 662.733 1697.97 696.265 1660.84 716.948Z" stroke="url(#paint5_linear_6464_129157)"/>
<path d="M1660.59 642.489L1660.16 642.246L1659.91 642.683L1660.35 642.926L1660.59 642.489ZM1661.08 641.616L1661.32 641.179L1660.89 640.935L1660.64 641.372L1661.08 641.616ZM1661.08 717.384L1661.32 717.821L1661.32 717.821L1661.08 717.384ZM1515.23 798.618L1514.8 798.862L1515.04 799.299L1515.48 799.055L1515.23 798.618ZM1514.75 797.745L1514.5 797.308L1514.07 797.551L1514.31 797.988L1514.75 797.745ZM1660.59 716.511L1660.84 716.948L1660.84 716.948L1660.59 716.511ZM1286.42 925.488L1286.18 925.051L1286.42 925.488ZM1152.19 433.949C1170.67 423.659 1194.91 418.5 1219.19 418.5C1243.46 418.5 1267.7 423.659 1286.18 433.949L1286.66 433.075C1268.01 422.682 1243.58 417.5 1219.19 417.5C1194.79 417.5 1170.37 422.682 1151.71 433.075L1152.19 433.949ZM1660.35 642.926C1678.74 653.17 1687.69 666.448 1687.69 679.5H1688.69C1688.69 665.946 1679.4 652.393 1660.84 642.052L1660.35 642.926ZM1660.64 641.372L1660.16 642.246L1661.03 642.732L1661.52 641.859L1660.64 641.372ZM1689.69 679.5C1689.69 665.445 1680.06 651.616 1661.32 641.179L1660.84 642.052C1679.4 652.393 1688.69 665.946 1688.69 679.5H1689.69ZM1661.32 717.821C1680.06 707.383 1689.69 693.554 1689.69 679.5H1688.69C1688.69 693.053 1679.4 706.606 1660.84 716.948L1661.32 717.821ZM1515.48 799.055L1661.32 717.821L1660.84 716.948L1514.99 798.182L1515.48 799.055ZM1514.31 797.988L1514.8 798.862L1515.67 798.375L1515.18 797.501L1514.31 797.988ZM1660.35 716.074L1514.5 797.308L1514.99 798.182L1660.84 716.948L1660.35 716.074ZM1687.69 679.5C1687.69 692.552 1678.74 705.83 1660.35 716.074L1660.84 716.948C1679.4 706.606 1688.69 693.053 1688.69 679.5H1687.69ZM1375.85 875.107C1365.89 880.657 1353.43 887.593 1338.49 895.917C1323.54 904.241 1306.1 913.953 1286.18 925.051L1286.66 925.925C1306.59 914.826 1324.03 905.115 1338.97 896.791C1353.92 888.467 1366.37 881.53 1376.34 875.981L1375.85 875.107ZM1286.18 925.051C1267.7 935.341 1243.46 940.5 1219.19 940.5C1194.91 940.5 1170.67 935.341 1152.19 925.051L1151.71 925.925C1170.37 936.318 1194.79 941.5 1219.19 941.5C1243.58 941.5 1268.01 936.318 1286.66 925.925L1286.18 925.051Z" fill="#39B8B0"/>
<path fill-rule="evenodd" clip-rule="evenodd" d="M2061.11 750.887L1347.36 1148.43C1276.57 1187.86 1161.8 1187.86 1091.02 1148.43L377.261 750.887C306.478 711.46 306.478 647.538 377.261 608.113L1091.02 210.57C1161.8 171.143 1276.57 171.143 1347.36 210.57L2061.11 608.113C2131.89 647.538 2131.89 711.46 2061.11 750.887Z" stroke="url(#paint6_linear_6464_129157)"/>
<path d="M582.733 864.757L583.169 865L583.413 864.563L582.976 864.32L582.733 864.757ZM468.833 801.318L469.076 800.881L468.64 800.638L468.396 801.074L468.833 801.318ZM582.246 865.631L582.003 866.067L582.44 866.311L582.683 865.874L582.246 865.631ZM468.346 802.191L467.91 801.948L467.666 802.385L468.103 802.628L468.346 802.191ZM582.976 864.32L469.076 800.881L468.59 801.754L582.489 865.194L582.976 864.32ZM582.683 865.874L583.169 865L582.296 864.514L581.809 865.387L582.683 865.874ZM468.103 802.628L582.003 866.067L582.489 865.194L468.59 801.754L468.103 802.628ZM468.396 801.074L467.91 801.948L468.783 802.435L469.27 801.561L468.396 801.074ZM497.102 541.937C563.12 505.167 605.327 481.542 631.031 467.109C643.882 459.892 652.608 454.974 658.12 451.859C660.877 450.302 662.83 449.196 664.094 448.479C664.726 448.121 665.186 447.86 665.488 447.688C665.639 447.602 665.75 447.539 665.824 447.497C665.861 447.476 665.888 447.46 665.907 447.45C665.916 447.445 665.923 447.441 665.927 447.438C665.929 447.437 665.931 447.436 665.932 447.435C665.933 447.435 665.933 447.435 665.934 447.435C665.934 447.435 665.934 447.434 665.686 447C665.439 446.566 665.439 446.566 665.439 446.566C665.438 446.566 665.438 446.566 665.437 446.566C665.436 446.567 665.435 446.568 665.432 446.569C665.428 446.572 665.421 446.576 665.412 446.581C665.394 446.591 665.366 446.607 665.33 446.628C665.256 446.67 665.145 446.733 664.994 446.819C664.692 446.99 664.233 447.251 663.601 447.609C662.337 448.326 660.385 449.432 657.629 450.989C652.117 454.103 643.392 459.021 630.541 466.237C604.839 480.669 562.633 504.294 496.616 541.064L497.102 541.937Z" fill="#39B8B0"/>
<path fill-rule="evenodd" clip-rule="evenodd" d="M2365.12 776.663L1393.64 1317.75C1297.29 1371.42 1141.08 1371.42 1044.73 1317.75L73.2563 776.663C-23.0854 723 -23.0854 635.996 73.2563 582.337L1044.73 41.2474C1141.08 -12.4158 1297.29 -12.4158 1393.64 41.2474L2365.12 582.337C2461.46 635.996 2461.46 723 2365.12 776.663Z" stroke="url(#paint7_radial_6464_129157)"/>
<path fill-rule="evenodd" clip-rule="evenodd" d="M1536.3 755.888L1268.91 904.655C1241.73 919.782 1197.65 919.782 1170.46 904.655L903.076 755.888C875.89 740.761 875.89 716.237 903.076 701.111L1170.46 552.344C1197.65 537.219 1241.73 537.219 1268.91 552.344L1536.3 701.111C1563.48 716.237 1563.48 740.761 1536.3 755.888Z" stroke="url(#paint8_linear_6464_129157)"/>
<path d="M1268.67 904.218L1269.11 903.974L1268.86 903.537L1268.43 903.781L1268.67 904.218ZM1269.15 905.091L1269.4 905.528L1269.83 905.285L1269.59 904.848L1269.15 905.091ZM1170.22 905.091L1169.78 904.848L1169.54 905.285L1169.97 905.528L1170.22 905.091ZM1170.7 904.217L1170.95 903.781L1170.51 903.537L1170.27 903.974L1170.7 904.217ZM903.319 701.548L903.076 701.111L903.076 701.111L903.319 701.548ZM1170.7 552.781L1170.95 553.218L1171.38 552.975L1171.14 552.538L1170.7 552.781ZM903.319 755.451L903.756 755.694L903.999 755.257L903.562 755.014L903.319 755.451ZM902.833 756.325L902.59 756.762L903.027 757.005L903.27 756.568L902.833 756.325ZM902.833 700.674L903.076 701.111L903.076 701.111L902.833 700.674ZM1170.22 551.907L1170.65 551.664L1170.41 551.227L1169.97 551.47L1170.22 551.907ZM1268.43 903.781C1255.02 911.241 1237.38 915 1219.69 915V916C1237.5 916 1255.32 912.218 1268.91 904.654L1268.43 903.781ZM1269.59 904.848L1269.11 903.974L1268.23 904.461L1268.72 905.334L1269.59 904.848ZM1219.69 917C1237.63 917 1255.62 913.195 1269.4 905.528L1268.91 904.654C1255.32 912.218 1237.5 916 1219.69 916V917ZM1169.97 905.528C1183.75 913.195 1201.75 917 1219.69 917V916C1201.87 916 1184.05 912.218 1170.46 904.654L1169.97 905.528ZM1170.27 903.974L1169.78 904.848L1170.65 905.334L1171.14 904.461L1170.27 903.974ZM1219.69 915C1201.99 915 1184.36 911.241 1170.95 903.781L1170.46 904.654C1184.05 912.218 1201.87 916 1219.69 916V915ZM903.562 701.985L1170.95 553.218L1170.46 552.344L903.076 701.111L903.562 701.985ZM883.687 728.499C883.687 719.088 890.143 709.451 903.562 701.985L903.076 701.111C889.483 708.674 882.687 718.586 882.687 728.499H883.687ZM903.562 755.014C890.143 747.547 883.687 737.909 883.687 728.499H882.687C882.687 738.411 889.483 748.324 903.076 755.888L903.562 755.014ZM903.27 756.568L903.756 755.694L902.882 755.208L902.396 756.082L903.27 756.568ZM881.687 728.499C881.687 738.914 888.824 749.102 902.59 756.762L903.076 755.888C889.483 748.324 882.687 738.411 882.687 728.499H881.687ZM902.59 700.237C888.824 707.896 881.687 718.084 881.687 728.499H882.687C882.687 718.586 889.483 708.674 903.076 701.111L902.59 700.237ZM1169.97 551.47L902.59 700.237L903.076 701.111L1170.46 552.344L1169.97 551.47ZM1171.14 552.538L1170.65 551.664L1169.78 552.15L1170.27 553.024L1171.14 552.538Z" fill="#39B8B0"/>
<path fill-rule="evenodd" clip-rule="evenodd" d="M1472.04 774.007L1258.37 893.677C1236.18 906.108 1200.19 906.108 1178 893.677L964.333 774.007C942.138 761.577 942.138 741.422 964.333 728.993L1178 609.323C1200.19 596.892 1236.18 596.892 1258.37 609.323L1472.04 728.993C1494.24 741.422 1494.24 761.577 1472.04 774.007Z" stroke="url(#paint9_linear_6464_129157)"/>
<path d="M1178 609.323C1200.19 596.892 1236.18 596.892 1258.37 609.323L1472.04 728.993" stroke="#39B8B0"/>
<path fill-rule="evenodd" clip-rule="evenodd" d="M1410.79 794.981L1250.83 884.759C1233.63 894.414 1205.74 894.414 1188.54 884.759L1028.59 794.981C1011.39 785.326 1011.39 769.673 1028.59 760.019L1188.54 670.242C1205.74 660.586 1233.63 660.586 1250.83 670.242L1410.79 760.019C1427.99 769.673 1427.99 785.326 1410.79 794.981Z" stroke="url(#paint10_linear_6464_129157)"/>
<path fill-rule="evenodd" clip-rule="evenodd" d="M1347.56 812.959L1241.71 872.84C1229.55 879.72 1209.83 879.72 1197.66 872.84L1091.81 812.959C1079.65 806.077 1079.65 794.921 1091.81 788.041L1197.66 728.16C1209.83 721.28 1229.55 721.28 1241.71 728.16L1347.56 788.041C1359.73 794.921 1359.73 806.077 1347.56 812.959Z" stroke="url(#paint11_linear_6464_129157)"/>
<path fill-rule="evenodd" clip-rule="evenodd" d="M1284.28 833.357L1231.75 862.953C1224.53 867.016 1212.84 867.016 1205.63 862.953L1153.1 833.357C1145.88 829.293 1145.88 822.705 1153.1 818.644L1205.63 789.048C1212.84 784.984 1224.53 784.984 1231.75 789.048L1284.28 818.644C1291.49 822.705 1291.49 829.293 1284.28 833.357Z" stroke="#D1D1D1"/>
<circle cx="1251.69" cy="814" r="7" fill="#39B8B0"/>
<circle cx="1271.69" cy="678" r="47" fill="#30504F"/>
<circle cx="1168.19" cy="789.5" r="16.5" fill="#30504F"/>
<path d="M1311.12 342.702L1310.68 342.459L1310.44 342.896L1310.87 343.139L1311.12 342.702ZM1824.42 628.598L1824.18 629.035L1824.61 629.278L1824.86 628.842L1824.42 628.598ZM1311.6 341.829L1311.85 341.392L1311.41 341.149L1311.17 341.585L1311.6 341.829ZM1824.91 627.725L1825.34 627.968L1825.59 627.531L1825.15 627.288L1824.91 627.725ZM613.953 730.401L614.39 730.645L614.633 730.208L614.196 729.965L613.953 730.401ZM613.466 731.275L613.223 731.712L613.66 731.955L613.903 731.518L613.466 731.275ZM613.466 627.725L613.903 627.481L613.66 627.045L613.223 627.288L613.466 627.725ZM613.953 628.598L614.196 629.035L614.633 628.792L614.39 628.355L613.953 628.598ZM1310.87 343.139L1824.18 629.035L1824.66 628.161L1311.36 342.265L1310.87 343.139ZM1311.17 341.585L1310.68 342.459L1311.56 342.946L1312.04 342.072L1311.17 341.585ZM1825.15 627.288L1311.85 341.392L1311.36 342.265L1824.66 628.161L1825.15 627.288ZM1824.86 628.842L1825.34 627.968L1824.47 627.481L1823.98 628.355L1824.86 628.842ZM1127.25 1016.3C1055.04 976.075 991.848 940.88 937.686 910.712C883.523 880.545 838.388 855.406 802.279 835.294L801.793 836.168C837.901 856.28 883.036 881.419 937.199 911.586C991.362 941.753 1054.55 976.948 1126.77 1017.17L1127.25 1016.3ZM614.196 729.965C588.918 715.884 576.531 697.579 576.531 679.499H575.531C575.531 698.08 588.257 716.661 613.71 730.838L614.196 729.965ZM613.903 731.518L614.39 730.645L613.516 730.158L613.03 731.032L613.903 731.518ZM574.531 679.499C574.531 698.582 587.597 717.438 613.223 731.712L613.71 730.838C588.257 716.661 575.531 698.08 575.531 679.499H574.531ZM613.223 627.288C587.597 641.561 574.531 660.417 574.531 679.499H575.531C575.531 660.918 588.257 642.338 613.71 628.161L613.223 627.288ZM614.39 628.355L613.903 627.481L613.03 627.968L613.516 628.842L614.39 628.355ZM576.531 679.499C576.531 661.42 588.918 643.114 614.196 629.035L613.71 628.161C588.257 642.338 575.531 660.918 575.531 679.499H576.531Z" fill="#39B8B0"/>
<circle cx="798.687" cy="865" r="3" fill="#39B8B0"/>
<circle cx="693.687" cy="775" r="3" fill="#39B8B0"/>
<circle cx="1363" cy="882" r="6" fill="#39B8B0"/>
<circle cx="1318.69" cy="523" r="3" fill="#39B8B0"/>
<circle cx="1456.69" cy="656" r="3" fill="#39B8B0"/>
<circle cx="1088.69" cy="735" r="11" fill="#39B8B0"/>
<circle cx="1212.69" cy="941" r="3" fill="#39B8B0"/>
<circle cx="896.687" cy="576" r="3" fill="#39B8B0"/>
<circle cx="1011.69" cy="435" r="3" fill="#39B8B0"/>
<circle cx="1363" cy="880" r="28" stroke="#39B8B0"/>
<circle cx="1250" cy="469" r="7" fill="#39B8B0"/>
<circle cx="1363" cy="644" r="7" fill="#39B8B0"/>
<circle cx="1096" cy="585" r="20" fill="#39B8B0"/>
<path d="M983.001 827.709L982.969 828.208L983.001 827.709ZM954.42 829.967L954.531 830.455L954.531 830.455L954.42 829.967ZM996.032 828.553L996.531 828.586L996.563 828.087L996.064 828.054L996.032 828.553ZM995.968 829.551L995.935 830.05L996.434 830.082L996.467 829.583L995.968 829.551ZM982.936 828.707L982.904 829.206L982.936 828.707ZM954.641 830.943L954.751 831.43L954.641 830.943ZM945.771 832.948L945.283 833.058L945.394 833.546L945.881 833.435L945.771 832.948ZM945.551 831.972L945.44 831.485L944.953 831.595L945.063 832.083L945.551 831.972ZM821.288 859.909L821.776 859.799L821.665 859.311L821.178 859.421L821.288 859.909ZM750.966 875.805L750.856 875.318L750.368 875.428L750.478 875.916L750.966 875.805ZM821.508 860.884L821.619 861.372L822.106 861.262L821.996 860.774L821.508 860.884ZM751.187 876.781L750.699 876.891L750.809 877.379L751.297 877.268L751.187 876.781ZM497.413 933.275L497.901 933.165L497.791 932.677L497.303 932.787L497.413 933.275ZM407.89 953.512L407.779 953.025L407.292 953.135L407.402 953.623L407.89 953.512ZM497.634 934.251L497.744 934.738L498.232 934.628L498.122 934.14L497.634 934.251ZM408.11 954.488L407.622 954.598L407.733 955.086L408.22 954.975L408.11 954.488ZM983.033 827.211C973.4 826.587 963.727 827.351 954.31 829.48L954.531 830.455C963.854 828.347 973.431 827.591 982.969 828.208L983.033 827.211ZM996.064 828.054L983.033 827.211L982.969 828.208L996 829.052L996.064 828.054ZM996.467 829.583L996.531 828.586L995.533 828.521L995.469 829.519L996.467 829.583ZM982.904 829.206L995.935 830.05L996 829.052L982.969 828.208L982.904 829.206ZM954.751 831.43C963.981 829.344 973.462 828.595 982.904 829.206L982.969 828.208C973.431 827.591 963.854 828.347 954.531 830.455L954.751 831.43ZM945.881 833.435L954.751 831.43L954.531 830.455L945.661 832.46L945.881 833.435ZM945.063 832.083L945.283 833.058L946.259 832.837L946.038 831.862L945.063 832.083ZM954.31 829.48L945.44 831.485L945.661 832.46L954.531 830.455L954.31 829.48ZM821.178 859.421L750.856 875.318L751.076 876.293L821.398 860.397L821.178 859.421ZM821.996 860.774L821.776 859.799L820.8 860.019L821.021 860.995L821.996 860.774ZM751.297 877.268L821.619 861.372L821.398 860.397L751.076 876.293L751.297 877.268ZM750.478 875.916L750.699 876.891L751.674 876.67L751.454 875.695L750.478 875.916ZM497.303 932.787L407.779 953.025L408 954L497.524 933.763L497.303 932.787ZM498.122 934.14L497.901 933.165L496.926 933.385L497.146 934.361L498.122 934.14ZM408.22 954.975L497.744 934.738L497.524 933.763L408 954L408.22 954.975ZM407.402 953.623L407.622 954.598L408.598 954.377L408.377 953.402L407.402 953.623Z" fill="#39B8B0"/>
<defs>
<linearGradient id="paint0_linear_6464_129157" x1="-206.403" y1="557.112" x2="-246.197" y2="1155.94" gradientUnits="userSpaceOnUse">
<stop stop-color="#C2C2C2"/>
<stop offset="1" stop-color="#C7C7C7" stop-opacity="0.01"/>
</linearGradient>
<radialGradient id="paint1_radial_6464_129157" cx="0" cy="0" r="1" gradientUnits="userSpaceOnUse" gradientTransform="translate(871.565 415.906) rotate(39.3605) scale(847.59 894.277)">
<stop stop-color="white"/>
<stop offset="0.258004" stop-color="#CDCDCD"/>
<stop offset="1" stop-color="#AFAFAF" stop-opacity="0.0940778"/>
</radialGradient>
<linearGradient id="paint2_linear_6464_129157" x1="1788.2" y1="876.135" x2="1708.81" y2="662.123" gradientUnits="userSpaceOnUse">
<stop stop-color="#C7C7C7" stop-opacity="0.01"/>
<stop offset="1" stop-color="#C2C2C2"/>
</linearGradient>
<linearGradient id="paint3_linear_6464_129157" x1="1195.3" y1="1139.21" x2="1618.14" y2="1321.18" gradientUnits="userSpaceOnUse">
<stop stop-color="#C2C2C2"/>
<stop offset="1" stop-color="#C7C7C7" stop-opacity="0.01"/>
</linearGradient>
<linearGradient id="paint4_linear_6464_129157" x1="749.687" y1="418" x2="749.687" y2="941" gradientUnits="userSpaceOnUse">
<stop stop-color="#CDCDCD"/>
<stop offset="1" stop-color="#A5A5A5"/>
</linearGradient>
<linearGradient id="paint5_linear_6464_129157" x1="881.777" y1="710.217" x2="1012.76" y2="1166.98" gradientUnits="userSpaceOnUse">
<stop stop-color="#D6D6D6"/>
<stop offset="1" stop-color="#A5A5A5"/>
</linearGradient>
<linearGradient id="paint6_linear_6464_129157" x1="636.587" y1="1081.59" x2="1027.35" y2="1605.43" gradientUnits="userSpaceOnUse">
<stop stop-color="#DDDDDD"/>
<stop offset="1" stop-color="#A5A5A5"/>
</linearGradient>
<radialGradient id="paint7_radial_6464_129157" cx="0" cy="0" r="1" gradientUnits="userSpaceOnUse" gradientTransform="translate(356.882 756.703) rotate(37.3915) scale(1277.59 1295.05)">
<stop stop-color="#CDCDCD" stop-opacity="0.399858"/>
<stop offset="1" stop-color="#E0E0E0"/>
</radialGradient>
<linearGradient id="paint8_linear_6464_129157" x1="882.687" y1="541" x2="882.687" y2="916" gradientUnits="userSpaceOnUse">
<stop offset="0.271498" stop-color="#D6D6D6"/>
<stop offset="1" stop-color="#A5A5A5"/>
</linearGradient>
<linearGradient id="paint9_linear_6464_129157" x1="947.687" y1="600" x2="947.687" y2="903" gradientUnits="userSpaceOnUse">
<stop offset="0.271498" stop-color="#D6D6D6"/>
<stop offset="1" stop-color="#A5A5A5"/>
</linearGradient>
<linearGradient id="paint10_linear_6464_129157" x1="1015.69" y1="663" x2="1015.69" y2="892" gradientUnits="userSpaceOnUse">
<stop offset="0.271498" stop-color="#D6D6D6"/>
<stop offset="1" stop-color="#A5A5A5"/>
</linearGradient>
<linearGradient id="paint11_linear_6464_129157" x1="1082.69" y1="723" x2="1082.69" y2="878" gradientUnits="userSpaceOnUse">
<stop offset="0.271498" stop-color="#D6D6D6"/>
<stop offset="1" stop-color="#A5A5A5"/>
</linearGradient>
</defs>
</svg>
